{
  "asset": {
    "version": "2.0",
    "generator": "THREE.GLTFExporter"
  },
  "scenes": [
    {
      "name": "AuxScene",
      "nodes": [
        1
      ]
    }
  ],
  "scene": 0,
  "nodes": [
    {
      "matrix": [
        1,
        0,
        0,
        0,
        0,
        -1.3435885648505064e-7,
        1.0000001343588565,
        0,
        0,
        -1.0000001343588565,
        -1.3435885648505064e-7,
        0,
        0,
        0,
        0,
        1
      ],
      "name": "jesus",
      "extras": {
        "name": "jesus",
        "associations": {
          "meshes": 0,
          "primitives": 0,
          "nodes": 0
        },
        "variantData": {}
      },
      "mesh": 0
    },
    {
      "name": "Scene",
      "children": [
        0
      ]
    }
  ],
  "bufferViews": [
    {
      "buffer": 0,
      "byteOffset": 0,
      "byteLength": 792,
      "target": 34962,
      "byteStride": 12
    },
    {
      "buffer": 0,
      "byteOffset": 792,
      "byteLength": 528,
      "target": 34962,
      "byteStride": 8
    },
    {
      "buffer": 0,
      "byteOffset": 1320,
      "byteLength": 792,
      "target": 34962,
      "byteStride": 12
    },
    {
      "buffer": 0,
      "byteOffset": 2112,
      "byteLength": 708,
      "target": 34963
    }
  ],
  "buffers": [
    {
      "name": "tmp",
      "byteLength": 2824,
      "uri": "tmp.bin"
    }
  ],
  "accessors": [
    {
      "bufferView": 0,
      "componentType": 5126,
      "count": 66,
      "max": [
        0.31732791662216187,
        -0.006504104472696781,
        -1.0981370210647583
      ],
      "min": [
        -0.314844012260437,
        -0.029390595853328705,
        -2.0171070098876953
      ],
      "type": "VEC3",
      "byteOffset": 0
    },
    {
      "bufferView": 1,
      "componentType": 5126,
      "count": 66,
      "max": [
        0.6915627717971802,
        0.9984131455421448
      ],
      "min": [
        0.0014988082693889737,
        0.001519918441772461
      ],
      "type": "VEC2",
      "byteOffset": 0
    },
    {
      "bufferView": 2,
      "componentType": 5126,
      "count": 66,
      "max": [
        0.513651967048645,
        0.9999694228172302,
        0.5691581964492798
      ],
      "min": [
        -0.10400130599737167,
        0.7934629321098328,
        -0.4579378068447113
      ],
      "type": "VEC3",
      "byteOffset": 0
    },
    {
      "bufferView": 3,
      "componentType": 5123,
      "count": 354,
      "max": [
        65
      ],
      "min": [
        0
      ],
      "type": "SCALAR",
      "byteOffset": 0
    }
  ],
  "materials": [
    {
      "pbrMetallicRoughness": {
        "metallicFactor": 0.26,
        "roughnessFactor": 0.86,
        "metallicRoughnessTexture": {
          "index": 0,
          "channel": 0,
          "texCoord": 0
        },
        "baseColorTexture": {
          "index": 1,
          "texCoord": 0
        },
        "baseColorFactor": [
          1,
          1,
          1,
          1
        ]
      },
      "normalTexture": {
        "index": 2,
        "texCoord": 0
      },
      "occlusionTexture": {
        "index": 3,
        "texCoord": 0
      },
      "doubleSided": true,
      "name": "Material",
      "extras": {
        "associations": {
          "materials": 0
        }
      },
      "extensions": {
        "KHR_materials_ior": {
          "ior": 1.4500000476837158
        },
        "KHR_materials_specular": {
          "specularFactor": 1,
          "specularColorFactor": [
            0,
            0,
            0
          ]
        }
      },
      "emissiveFactor": [
        0,
        0,
        0
      ],
      "alphaMode": "OPAQUE"
    }
  ],
  "textures": [
    {
      "sampler": 0,
      "source": 0,
      "name": "Material_Roughness"
    },
    {
      "sampler": 1,
      "source": 1,
      "name": "Material_Base_color"
    },
    {
      "sampler": 2,
      "source": 2,
      "name": "Material_Normal_OpenGL"
    },
    {
      "sampler": 3,
      "source": 3,
      "name": "blob:https://modelviewer.dev/9096a026-7ee5-4486-9495-87c4430775b9"
    }
  ],
  "samplers": [
    {
      "magFilter": 9729,
      "minFilter": 9987,
      "wrapS": 10497,
      "wrapT": 10497
    },
    {
      "magFilter": 9729,
      "minFilter": 9987,
      "wrapS": 10497,
      "wrapT": 10497
    },
    {
      "magFilter": 9729,
      "minFilter": 9987,
      "wrapS": 10497,
      "wrapT": 10497
    },
    {
      "magFilter": 9729,
      "minFilter": 9987,
      "wrapS": 10497,
      "wrapT": 10497
    }
  ],
  "images": [
    {
      "mimeType": "image/jpg",
      "uri": "tmp0.jpg"
    },
    {
      "mimeType": "image/jpg",
      "uri": "tmp1.jpg"
    },
    {
      "mimeType": "image/jpg",
      "uri": "tmp2.jpg"
    },
    {
      "mimeType": "image/jpg",
      "uri": "tmp3.jpg"
    }
  ],
  "meshes": [
    {
      "primitives": [
        {
          "mode": 4,
          "attributes": {
            "POSITION": 0,
            "TEXCOORD_0": 1,
            "NORMAL": 2
          },
          "indices": 3,
          "material": 0
        }
      ]
    }
  ],
  "extensionsUsed": [
    "KHR_materials_ior",
    "KHR_materials_specular"
  ]
}
